<?xml version="1.0" encoding="UTF-8"?><svg id="Layer_1" xmlns="http://www.w3.org/2000/svg" viewBox="0 0 1303.94 1303.94"><defs><style>.cls-1{stroke:#428cca;}.cls-1,.cls-2,.cls-3{fill:none;stroke-linecap:round;stroke-linejoin:round;stroke-width:12px;}.cls-2{stroke:#4c5884;}.cls-4{fill:#7c62c0;stroke-width:0px;}.cls-3{stroke:#7c62c0;}</style></defs><circle class="cls-4" cx="641.07" cy="918.26" r="7.09"/><circle class="cls-4" cx="641.07" cy="948.19" r="7.09"/><polyline class="cls-3" points="641.07 891.52 641.07 785.74 603.36 785.74 666.03 700.41 727.66 785.74 693.88 785.74 693.59 962.63"/><circle class="cls-4" cx="814.29" cy="918.26" r="7.09"/><circle class="cls-4" cx="814.29" cy="948.19" r="7.09"/><polyline class="cls-3" points="814.29 886.93 814.29 857.45 851.99 857.45 789.33 772.11 727.7 857.45 761.47 857.45 761.77 962.63"/><path class="cls-2" d="m743.36,746.48s50.37-26.07,74.67-29.04v-27.85"/><path class="cls-2" d="m916.4,689.59v28.44s85.04,22.81,100.15,35.26c0,0,38.52,21.04,40.89,66.67v145.78"/><line class="cls-2" x1="973.29" y1="867.37" x2="973.29" y2="963.96"/><path class="cls-2" d="m802.92,724.63s30,36.67,68.67,35.11c0,0,42.22-4,63.11-35.11"/><line class="cls-2" x1="843.46" y1="602.78" x2="852.84" y2="602.78"/><line class="cls-2" x1="886.86" y1="602.78" x2="896.25" y2="602.78"/><path class="cls-2" d="m839.66,651.22s14.67,14.37,28.74,13.63c0,0,16,2.52,29.78-13.63"/><path class="cls-2" d="m870.14,701.15c68.33-5.63,72.52-72.59,72.52-72.59,15.11-8.89,14.22-45.93,14.22-45.93l-15.85-9.11s-9.56-34.22-44.89-22.67c0,0-9.46,7.54-26.3,6.06"/><path class="cls-2" d="m867.58,701.15c-68.33-5.63-70.63-72.59-70.63-72.59-15.11-8.89-14.22-45.93-14.22-45.93l15.85-9.11s9.56-34.22,44.89-22.67c0,0,9.83,7.52,26.67,6.04"/><path class="cls-2" d="m788.4,574.04s-22.52-50.07,24.3-97.19c0,0,34.96,24.3,90.07,22.22,0,0,53.63-4.74,50.96,74.96"/><line class="cls-1" x1="408.25" y1="460.63" x2="408.25" y2="532.85"/><line class="cls-1" x1="372.14" y1="496.74" x2="444.36" y2="496.74"/><circle class="cls-1" cx="531.09" cy="652.95" r="27.44"/><circle class="cls-1" cx="598.54" cy="601.61" r="56.02"/><path class="cls-2" d="m994.33,455.22h67.26s74.67-4.59,70.22,97.63v326.52s5.78,102.37-88.89,90.81H179.83"/></svg>