<?xml version="1.0" encoding="UTF-8"?><svg id="Layer_1" xmlns="http://www.w3.org/2000/svg" viewBox="0 0 1303.94 1303.94"><defs><style>.cls-1{stroke:#428cca;}.cls-1,.cls-2,.cls-3{fill:none;stroke-linecap:round;stroke-linejoin:round;stroke-width:12px;}.cls-2{stroke:#4c5884;}.cls-3{stroke:#7c62c0;}</style></defs><rect class="cls-2" x="441.72" y="457.11" width="404.74" height="28.74"/><polyline class="cls-2" points="458.9 492.09 458.9 753.7 585.13 753.7"/><line class="cls-2" x1="829.57" y1="492.1" x2="829.57" y2="612.37"/><polyline class="cls-2" points="829.57 702.15 829.57 753.7 691.79 753.7"/><line class="cls-3" x1="504.53" y1="559.3" x2="504.53" y2="653.52"/><line class="cls-3" x1="544.53" y1="599.3" x2="544.53" y2="653.52"/><line class="cls-3" x1="583.35" y1="574.41" x2="583.35" y2="653.52"/><line class="cls-3" x1="623.94" y1="568.48" x2="623.94" y2="653.52"/><line class="cls-3" x1="663.94" y1="545.07" x2="663.94" y2="653.52"/><line class="cls-3" x1="703.64" y1="570" x2="703.64" y2="597.85"/><line class="cls-3" x1="744.83" y1="583.92" x2="744.83" y2="596.67"/><line class="cls-3" x1="504.53" y1="679.33" x2="504.53" y2="692.07"/><line class="cls-3" x1="544.53" y1="679.33" x2="544.53" y2="692.07"/><line class="cls-3" x1="584.53" y1="679.33" x2="584.53" y2="692.07"/><line class="cls-3" x1="624.53" y1="679.33" x2="624.53" y2="692.07"/><line class="cls-3" x1="664.53" y1="679.33" x2="664.53" y2="692.07"/><line class="cls-3" x1="704.53" y1="679.33" x2="704.53" y2="692.07"/><line class="cls-3" x1="744.53" y1="679.33" x2="744.53" y2="692.07"/><path class="cls-2" d="m901.9,522s-22.04-.31-25.81,15.43v12.59s-4.41-.63-6.3,7.24c0,0,2.2,12.28,5.35,15.43l1.89,8.5s8.5,21.72,27.07,21.41"/><path class="cls-2" d="m904.42,522s22.04-.31,25.81,15.43v12.59s4.41-.63,6.3,7.24c0,0-2.2,12.28-5.35,15.43l-1.89,8.5s-8.5,21.72-27.07,21.41"/><path class="cls-2" d="m533.69,784.22s-22.04-.31-25.81,15.43v12.59s-4.41-.63-6.3,7.24c0,0,2.2,12.28,5.35,15.43l1.89,8.5s8.5,21.72,27.07,21.41"/><path class="cls-2" d="m536.21,784.22s22.04-.31,25.81,15.43v12.59s4.41-.63,6.3,7.24c0,0-2.2,12.28-5.35,15.43l-1.89,8.5s-8.5,21.72-27.07,21.41"/><path class="cls-2" d="m637.2,747.48s-22.04-.31-25.81,15.43v12.59s-4.41-.63-6.3,7.24c0,0,2.2,12.28,5.35,15.43l1.89,8.5s8.5,21.72,27.07,21.41"/><path class="cls-2" d="m639.72,747.48s22.04-.31,25.81,15.43v12.59s4.41-.63,6.3,7.24c0,0-2.2,12.28-5.35,15.43l-1.89,8.5s-8.5,21.72-27.07,21.41"/><path class="cls-2" d="m743.27,784.22s-22.04-.31-25.81,15.43v12.59s-4.41-.63-6.3,7.24c0,0,2.2,12.28,5.35,15.43l1.89,8.5s8.5,21.72,27.07,21.41"/><path class="cls-2" d="m745.79,784.22s22.04-.31,25.81,15.43v12.59s4.41-.63,6.3,7.24c0,0-2.2,12.28-5.35,15.43l-1.89,8.5s-8.5,21.72-27.07,21.41"/><path class="cls-2" d="m886.95,599.3v9.22s-16.05,10.52-66.27,9.63h-106.22s-36.72,6.22,13.86,40.89l114.28-2.29s18.38-2.45,17.19,16.73v271.93"/><path class="cls-2" d="m919.37,599.3v9.3s20.2,12.67,44.42,16.44c0,0,17.56,2.22,16.22,31.11v84.81s-6,24.89-36.67,22.52h-79.7"/><line class="cls-2" x1="946.01" y1="658.59" x2="946.01" y2="945.41"/><line class="cls-2" x1="903.64" y1="796.67" x2="903.64" y2="948.07"/><line class="cls-2" x1="361.13" y1="951.81" x2="980.09" y2="951.81"/><polyline class="cls-2" points="622.25 822.15 622.25 839.35 586.24 852.81"/><polyline class="cls-2" points="656 822.15 656 839.35 692.01 852.81"/><path class="cls-2" d="m518.12,857.72v17.21l-40.55,12.41s-18.07,4.74-18.07,25.48v33.78"/><path class="cls-2" d="m552.13,857.72v17.21s40.55,12.41,40.55,12.41c0,0,18.07,4.74,18.07,25.48v33.78"/><line class="cls-2" x1="492.68" y1="922.81" x2="492.68" y2="947.48"/><line class="cls-2" x1="578.01" y1="922.81" x2="578.01" y2="947.48"/><path class="cls-2" d="m726.59,857.72v17.21l-40.55,12.41s-18.07,4.74-18.07,25.48v33.78"/><path class="cls-2" d="m760.59,857.72v17.21s40.55,12.41,40.55,12.41c0,0,18.07,4.74,18.07,25.48v33.78"/><line class="cls-2" x1="701.14" y1="922.81" x2="701.14" y2="947.48"/><line class="cls-2" x1="786.48" y1="922.81" x2="786.48" y2="947.48"/><path class="cls-1" d="m477.27,343.11s17.48-3.41,28.44,17.04c0,0,9.19,18.33,31.26,15.56,0,0,11.81-.56,34.37-26.59,0,0,20.07-20,39.26,3.48,0,0,14.22,23.26,36,24.3"/><path class="cls-1" d="m536.98,375.7s9.45,2.12,32.01-23.91c0,0,22.44-22.68,41.62.8"/><path class="cls-1" d="m808.24,343.11s-16.26-3.41-26.45,17.04c0,0-8.54,18.33-29.07,15.56,0,0-10.99-.56-31.96-26.59,0,0-18.67-20-36.51,3.48,0,0-13.23,23.26-33.48,24.3"/><line class="cls-1" x1="278.46" y1="926.67" x2="278.46" y2="991.26"/><line class="cls-1" x1="310.75" y1="958.96" x2="246.16" y2="958.96"/></svg>